<svg width="120" height="41" viewBox="0 0 120 41" fill="none" xmlns="http://www.w3.org/2000/svg">
  <g clip-path="url(#clip0_3205_13859)">
  <path d="M110.135 0.81263H9.53468C9.16798 0.81263 8.80568 0.81263 8.43995 0.81463C8.1338 0.81663 7.83009 0.82244 7.521 0.82733C6.84951 0.835232 6.17961 0.894306 5.5171 1.00404C4.85552 1.11616 4.21467 1.32755 3.61622 1.63104C3.0185 1.9371 2.47235 2.3348 1.99757 2.8097C1.5203 3.28327 1.12246 3.83065 0.81935 4.43079C0.5154 5.02974 0.304641 5.67157 0.19435 6.33411C0.0830109 6.99582 0.0230984 7.66515 0.01515 8.33611C0.00587 8.64271 0.00489 8.95033 0 9.25697V32.3712C0.00489 32.6817 0.00587 32.9825 0.01515 33.2931C0.0231008 33.9641 0.0830134 34.6334 0.19435 35.295C0.304336 35.958 0.515108 36.6002 0.81935 37.1993C1.12233 37.7975 1.52022 38.3427 1.99757 38.8136C2.47054 39.2906 3.01705 39.6886 3.61622 39.9923C4.21467 40.2966 4.85545 40.5093 5.5171 40.6231C6.17972 40.732 6.84956 40.7911 7.521 40.7999C7.83009 40.8067 8.1338 40.8106 8.43995 40.8106C8.80567 40.8126 9.168 40.8126 9.53468 40.8126H110.135C110.494 40.8126 110.859 40.8126 111.219 40.8106C111.523 40.8106 111.836 40.8067 112.141 40.7999C112.811 40.7916 113.479 40.7325 114.141 40.6231C114.804 40.5085 115.448 40.2959 116.049 39.9923C116.647 39.6884 117.193 39.2905 117.666 38.8136C118.142 38.3409 118.541 37.7961 118.848 37.1993C119.15 36.5997 119.358 35.9576 119.467 35.295C119.578 34.6333 119.64 33.9641 119.652 33.2931C119.656 32.9825 119.656 32.6817 119.656 32.3712C119.664 32.0079 119.664 31.6466 119.664 31.2774V10.3488C119.664 9.98255 119.664 9.61927 119.656 9.25697C119.656 8.95033 119.656 8.64271 119.652 8.33607C119.64 7.66505 119.578 6.99587 119.467 6.33407C119.358 5.67191 119.149 5.03013 118.848 4.43075C118.23 3.22783 117.252 2.24866 116.049 1.63095C115.448 1.3282 114.804 1.11687 114.141 1.00395C113.48 0.893733 112.811 0.834638 112.141 0.82719C111.836 0.82231 111.523 0.81645 111.219 0.8145C110.859 0.8125 110.494 0.8125 110.135 0.8125V0.81263Z" fill="#A6A6A6"/>
  <path d="M8.44481 39.9375C8.14013 39.9375 7.84281 39.9336 7.54052 39.9268C6.9143 39.9186 6.28954 39.8641 5.67138 39.7637C5.09497 39.6644 4.53658 39.4798 4.01464 39.2158C3.49748 38.954 3.02579 38.6108 2.61764 38.1992C2.20358 37.7925 1.85885 37.3207 1.59713 36.8027C1.33252 36.2813 1.14939 35.7224 1.05413 35.1455C0.95125 34.5256 0.89559 33.8988 0.887626 33.2705C0.881286 33.0596 0.872986 32.3574 0.872986 32.3574V9.25684C0.872986 9.25684 0.881826 8.56543 0.887676 8.3623C0.895302 7.73498 0.950638 7.10915 1.05321 6.49023C1.14864 5.91175 1.33191 5.35125 1.59667 4.82813C1.85743 4.31044 2.20024 3.83836 2.61181 3.43018C3.02291 3.01812 3.49611 2.6731 4.01415 2.40771C4.53489 2.14459 5.09222 1.96123 5.66747 1.86377C6.28766 1.76234 6.91459 1.7075 7.54298 1.69971L8.4453 1.6875H111.214L112.127 1.7002C112.75 1.7076 113.371 1.76195 113.985 1.86279C114.566 1.96148 115.13 2.14612 115.656 2.41064C116.694 2.94549 117.539 3.79166 118.071 4.83057C118.332 5.35008 118.512 5.90601 118.606 6.47949C118.71 7.10349 118.768 7.73424 118.78 8.3667C118.783 8.6499 118.783 8.9541 118.783 9.25684C118.791 9.63184 118.791 9.98877 118.791 10.3486V31.2773C118.791 31.6406 118.791 31.9951 118.783 32.3525C118.783 32.6777 118.783 32.9756 118.779 33.2822C118.768 33.9034 118.71 34.5229 118.608 35.1357C118.515 35.7168 118.333 36.28 118.068 36.8057C117.805 37.3181 117.462 37.7858 117.053 38.1914C116.644 38.6052 116.172 38.9504 115.653 39.2139C115.128 39.4799 114.566 39.6652 113.985 39.7637C113.367 39.8647 112.742 39.9192 112.116 39.9268C111.823 39.9336 111.517 39.9375 111.219 39.9375L110.135 39.9395L8.44481 39.9375Z" fill="black"/>
  <path d="M24.7689 21.1138C24.7796 20.2791 25.0013 19.4608 25.4134 18.7348C25.8254 18.0089 26.4143 17.3989 27.1254 16.9617C26.6737 16.3166 26.0777 15.7856 25.3849 15.4111C24.6921 15.0365 23.9215 14.8287 23.1343 14.8041C21.455 14.6278 19.8271 15.8089 18.9714 15.8089C18.0991 15.8089 16.7816 14.8216 15.3629 14.8508C14.4452 14.8804 13.5509 15.1473 12.767 15.6253C11.9831 16.1034 11.3364 16.7763 10.89 17.5786C8.95595 20.927 10.3985 25.8481 12.2511 28.5547C13.178 29.8801 14.2613 31.3605 15.6788 31.308C17.0658 31.2505 17.5839 30.4235 19.2582 30.4235C20.9169 30.4235 21.403 31.308 22.8492 31.2746C24.3376 31.2505 25.2753 29.9434 26.1697 28.6055C26.8357 27.6611 27.3481 26.6174 27.6881 25.513C26.8234 25.1472 26.0855 24.5351 25.5664 23.7528C25.0472 22.9705 24.7699 22.0527 24.7689 21.1138Z" fill="white"/>
  <path d="M22.0373 13.0238C22.8488 12.0496 23.2486 10.7974 23.1518 9.5332C21.912 9.66342 20.7667 10.256 19.9442 11.1928C19.5421 11.6505 19.2341 12.1829 19.0378 12.7597C18.8416 13.3365 18.7609 13.9462 18.8005 14.5542C19.4206 14.5606 20.0341 14.4262 20.5948 14.1611C21.1555 13.896 21.6487 13.5071 22.0373 13.0238Z" fill="white"/>
  <path d="M42.3022 27.9522H37.5688L36.4321 31.3086H34.4272L38.9106 18.8906H40.9936L45.477 31.3086H43.438L42.3022 27.9522ZM38.0591 26.4033H41.8111L39.9615 20.9561H39.9097L38.0591 26.4033Z" fill="white"/>
  <path d="M55.1597 26.782C55.1597 29.5954 53.6538 31.403 51.3814 31.403C50.8057 31.4332 50.2332 31.3006 49.7294 31.0204C49.2256 30.7403 48.8109 30.3239 48.5327 29.819H48.4897V34.3034H46.6313V22.2546H48.4302V23.7605H48.4644C48.7553 23.258 49.1771 22.8438 49.6847 22.562C50.1923 22.2801 50.7669 22.1412 51.3472 22.1599C53.645 22.1599 55.1597 23.9763 55.1597 26.782ZM53.2495 26.782C53.2495 24.949 52.3023 23.7439 50.857 23.7439C49.437 23.7439 48.482 24.9743 48.482 26.782C48.482 28.6062 49.437 29.8279 50.857 29.8279C52.3023 29.8279 53.2495 28.6316 53.2495 26.782Z" fill="white"/>
  <path d="M65.1245 26.7819C65.1245 29.5954 63.6186 31.403 61.3462 31.403C60.7705 31.4331 60.198 31.3005 59.6942 31.0204C59.1904 30.7403 58.7757 30.3239 58.4975 29.819H58.4545V34.3034H56.5961V22.2546H58.395V23.7605H58.4291C58.7201 23.258 59.1418 22.8438 59.6494 22.562C60.1571 22.2801 60.7316 22.1412 61.312 22.1599C63.6098 22.1599 65.1245 23.9763 65.1245 26.7819ZM63.2143 26.7819C63.2143 24.9489 62.267 23.7439 60.8217 23.7439C59.4018 23.7439 58.4467 24.9743 58.4467 26.7819C58.4467 28.6062 59.4018 29.8278 60.8217 29.8278C62.2671 29.8278 63.2143 28.6316 63.2143 26.7819H63.2143Z" fill="white"/>
  <path d="M71.7105 27.8487C71.8482 29.0801 73.0445 29.8887 74.6792 29.8887C76.2456 29.8887 77.3726 29.0801 77.3726 27.9697C77.3726 27.0059 76.6929 26.4287 75.0835 26.0332L73.4742 25.6455C71.1939 25.0947 70.1353 24.0283 70.1353 22.2979C70.1353 20.1553 72.0025 18.6836 74.6538 18.6836C77.2778 18.6836 79.0767 20.1553 79.1372 22.2979H77.2612C77.1489 21.0586 76.1245 20.3106 74.6274 20.3106C73.1304 20.3106 72.106 21.0674 72.106 22.169C72.106 23.0469 72.7603 23.5635 74.3608 23.959L75.729 24.2949C78.2769 24.8974 79.3355 25.9209 79.3355 27.7373C79.3355 30.0605 77.4849 31.5156 74.5415 31.5156C71.7876 31.5156 69.9282 30.0947 69.8081 27.8486L71.7105 27.8487Z" fill="white"/>
  <path d="M83.3462 20.1123V22.2549H85.0679V23.7266H83.3462V28.7178C83.3462 29.4932 83.6909 29.8545 84.4477 29.8545C84.6521 29.8509 84.8562 29.8366 85.0591 29.8115V31.2744C84.7188 31.338 84.3729 31.3668 84.0268 31.3603C82.1938 31.3603 81.479 30.6718 81.479 28.916V23.7266H80.1626V22.2549H81.479V20.1123H83.3462Z" fill="white"/>
  <path d="M86.065 26.7822C86.065 23.9336 87.7427 22.1436 90.3589 22.1436C92.9839 22.1436 94.6539 23.9336 94.6539 26.7822C94.6539 29.6387 92.9927 31.4209 90.3589 31.4209C87.7261 31.4209 86.065 29.6387 86.065 26.7822ZM92.7603 26.7822C92.7603 24.8281 91.8648 23.6748 90.3589 23.6748C88.8531 23.6748 87.9585 24.8369 87.9585 26.7822C87.9585 28.7441 88.8531 29.8887 90.3589 29.8887C91.8648 29.8887 92.7603 28.7441 92.7603 26.7822H92.7603Z" fill="white"/>
  <path d="M96.186 22.2545H97.9585V23.7955H98.0015C98.1214 23.3142 98.4034 22.8889 98.8 22.591C99.1966 22.2931 99.6836 22.1409 100.179 22.1598C100.393 22.159 100.607 22.1823 100.816 22.2291V23.9674C100.546 23.8848 100.264 23.8468 99.981 23.8551C99.711 23.8441 99.4418 23.8917 99.192 23.9946C98.9421 24.0975 98.7175 24.2533 98.5335 24.4511C98.3496 24.649 98.2106 24.8844 98.1262 25.1411C98.0417 25.3977 98.0139 25.6696 98.0444 25.9381V31.3082H96.186L96.186 22.2545Z" fill="white"/>
  <path d="M109.384 28.6494C109.134 30.293 107.534 31.4209 105.486 31.4209C102.852 31.4209 101.217 29.6562 101.217 26.8252C101.217 23.9854 102.861 22.1436 105.408 22.1436C107.913 22.1436 109.488 23.8643 109.488 26.6094V27.2461H103.093V27.3584C103.064 27.6916 103.105 28.0273 103.216 28.3431C103.326 28.6589 103.502 28.9477 103.732 29.1903C103.963 29.4328 104.242 29.6236 104.552 29.7499C104.861 29.8762 105.195 29.9351 105.529 29.9228C105.968 29.964 106.409 29.8623 106.785 29.6328C107.162 29.4034 107.455 29.0585 107.62 28.6494L109.384 28.6494ZM103.102 25.9473H107.628C107.645 25.6477 107.6 25.3479 107.495 25.0666C107.39 24.7854 107.229 24.5289 107.02 24.3131C106.812 24.0974 106.561 23.927 106.283 23.8128C106.006 23.6986 105.708 23.643 105.408 23.6494C105.105 23.6476 104.805 23.7058 104.525 23.8205C104.245 23.9352 103.99 24.1043 103.776 24.3179C103.562 24.5316 103.392 24.7855 103.276 25.0652C103.16 25.3448 103.101 25.6446 103.102 25.9473V25.9473Z" fill="white"/>
  <path d="M37.8262 9.5429C38.2158 9.51494 38.6067 9.5738 38.9709 9.71524C39.335 9.85667 39.6632 10.0772 39.9317 10.3608C40.2003 10.6444 40.4026 10.9841 40.524 11.3554C40.6454 11.7266 40.6829 12.1202 40.6338 12.5077C40.6338 14.414 39.6035 15.5097 37.8262 15.5097H35.6709V9.5429H37.8262ZM36.5976 14.6659H37.7226C38.0011 14.6825 38.2797 14.6369 38.5382 14.5323C38.7967 14.4277 39.0287 14.2667 39.2172 14.0612C39.4057 13.8556 39.546 13.6106 39.6278 13.344C39.7097 13.0773 39.7311 12.7958 39.6904 12.5199C39.7281 12.2451 39.7046 11.9653 39.6215 11.7006C39.5383 11.436 39.3977 11.193 39.2096 10.989C39.0216 10.7851 38.7907 10.6253 38.5337 10.5211C38.2766 10.4168 37.9996 10.3707 37.7226 10.3861H36.5976V14.6659Z" fill="white"/>
  <path d="M41.6806 13.2563C41.6523 12.9604 41.6862 12.6618 41.78 12.3797C41.8739 12.0977 42.0256 11.8383 42.2256 11.6184C42.4255 11.3984 42.6692 11.2226 42.9411 11.1023C43.2129 10.9821 43.5069 10.9199 43.8042 10.9199C44.1014 10.9199 44.3954 10.9821 44.6673 11.1023C44.9391 11.2226 45.1828 11.3984 45.3828 11.6184C45.5827 11.8383 45.7345 12.0977 45.8283 12.3797C45.9222 12.6618 45.956 12.9604 45.9277 13.2563C45.9566 13.5525 45.9231 13.8515 45.8295 14.134C45.7359 14.4166 45.5843 14.6764 45.3843 14.8968C45.1843 15.1172 44.9404 15.2933 44.6683 15.4139C44.3961 15.5344 44.1018 15.5967 43.8042 15.5967C43.5065 15.5967 43.2122 15.5344 42.9401 15.4139C42.668 15.2933 42.4241 15.1172 42.2241 14.8968C42.0241 14.6764 41.8724 14.4166 41.7788 14.134C41.6852 13.8515 41.6518 13.5525 41.6806 13.2563ZM45.0136 13.2563C45.0136 12.2802 44.5752 11.7094 43.8056 11.7094C43.0332 11.7094 42.5986 12.2802 42.5986 13.2563C42.5986 14.2402 43.0332 14.8066 43.8056 14.8066C44.5752 14.8066 45.0136 14.2363 45.0136 13.2563H45.0136Z" fill="white"/>
  <path d="M51.5732 15.5098H50.6514L49.7207 12.1934H49.6504L48.7236 15.5098H47.8105L46.5693 11.0068H47.4707L48.2773 14.4428H48.3438L49.2695 11.0068H50.1221L51.0479 14.4428H51.1182L51.9209 11.0068H52.8096L51.5732 15.5098Z" fill="white"/>
  <path d="M53.8535 11.0064H54.709V11.7217H54.7754C54.888 11.4648 55.0781 11.2494 55.3189 11.1056C55.5598 10.9618 55.8395 10.8967 56.1191 10.9195C56.3382 10.903 56.5582 10.936 56.7628 11.0161C56.9674 11.0962 57.1514 11.2213 57.3011 11.3822C57.4508 11.543 57.5623 11.7355 57.6275 11.9453C57.6927 12.1551 57.7099 12.3769 57.6777 12.5943V15.5093H56.7891V12.8174C56.7891 12.0938 56.4746 11.7339 55.8174 11.7339C55.6686 11.727 55.5201 11.7523 55.3821 11.8082C55.244 11.864 55.1197 11.949 55.0175 12.0574C54.9154 12.1658 54.8379 12.295 54.7904 12.4361C54.7429 12.5772 54.7264 12.727 54.7422 12.875V15.5093H53.8535L53.8535 11.0064Z" fill="white"/>
  <path d="M59.0938 9.24902H59.9824V15.5098H59.0938V9.24902Z" fill="white"/>
  <path d="M61.2178 13.2564C61.1895 12.9604 61.2234 12.6619 61.3172 12.3798C61.4111 12.0977 61.5629 11.8384 61.7628 11.6184C61.9628 11.3984 62.2065 11.2226 62.4784 11.1023C62.7503 10.9821 63.0443 10.9199 63.3416 10.9199C63.6389 10.9199 63.9329 10.9821 64.2047 11.1023C64.4766 11.2226 64.7203 11.3984 64.9203 11.6184C65.1203 11.8384 65.272 12.0977 65.3659 12.3798C65.4598 12.6619 65.4936 12.9604 65.4653 13.2564C65.4942 13.5526 65.4607 13.8516 65.3671 14.1341C65.2734 14.4167 65.1217 14.6765 64.9217 14.8969C64.7217 15.1173 64.4778 15.2934 64.2057 15.4139C63.9335 15.5345 63.6392 15.5967 63.3416 15.5967C63.0439 15.5967 62.7496 15.5345 62.4775 15.4139C62.2053 15.2934 61.9614 15.1173 61.7614 14.8969C61.5614 14.6765 61.4097 14.4167 61.3161 14.1341C61.2225 13.8516 61.189 13.5526 61.2178 13.2564ZM64.5508 13.2564C64.5508 12.2803 64.1123 11.7095 63.3428 11.7095C62.5703 11.7095 62.1358 12.2803 62.1358 13.2564C62.1358 14.2403 62.5704 14.8067 63.3428 14.8067C64.1123 14.8067 64.5508 14.2364 64.5508 13.2564H64.5508Z" fill="white"/>
  <path d="M66.4009 14.2363C66.4009 13.4258 67.0044 12.9585 68.0757 12.8921L69.2954 12.8218V12.4331C69.2954 11.9575 68.981 11.689 68.3735 11.689C67.8774 11.689 67.5337 11.8711 67.4351 12.1895H66.5747C66.6655 11.416 67.3931 10.9199 68.4146 10.9199C69.5435 10.9199 70.1802 11.4819 70.1802 12.4331V15.5098H69.3247V14.877H69.2544C69.1117 15.1039 68.9113 15.289 68.6737 15.4132C68.436 15.5374 68.1697 15.5963 67.9019 15.584C67.7128 15.6036 67.5218 15.5834 67.341 15.5247C67.1602 15.4661 66.9938 15.3701 66.8524 15.2432C66.711 15.1162 66.5977 14.961 66.52 14.7876C66.4422 14.6142 66.4016 14.4264 66.4009 14.2363ZM69.2954 13.8516V13.4751L68.1958 13.5454C67.5757 13.5869 67.2944 13.7978 67.2944 14.1948C67.2944 14.6001 67.646 14.8359 68.1294 14.8359C68.2711 14.8503 68.4142 14.836 68.5502 14.7939C68.6862 14.7518 68.8123 14.6828 68.9211 14.5909C69.0299 14.4991 69.1191 14.3863 69.1834 14.2593C69.2477 14.1323 69.2858 13.9936 69.2954 13.8516Z" fill="white"/>
  <path d="M71.3481 13.2564C71.3481 11.8335 72.0796 10.9321 73.2173 10.9321C73.4987 10.9192 73.778 10.9866 74.0225 11.1265C74.267 11.2664 74.4667 11.473 74.5981 11.7221H74.6646V9.24902H75.5532V15.5098H74.7017V14.7983H74.6314C74.4897 15.0458 74.2831 15.2499 74.0339 15.3883C73.7846 15.5268 73.5022 15.5945 73.2173 15.584C72.0718 15.584 71.3481 14.6826 71.3481 13.2564ZM72.2661 13.2564C72.2661 14.2114 72.7163 14.7862 73.4693 14.7862C74.2183 14.7862 74.6812 14.2032 74.6812 13.2603C74.6812 12.3218 74.2134 11.7305 73.4693 11.7305C72.7212 11.7305 72.2661 12.3091 72.2661 13.2564H72.2661Z" fill="white"/>
  <path d="M79.23 13.2563C79.2016 12.9604 79.2355 12.6618 79.3293 12.3797C79.4232 12.0977 79.5749 11.8383 79.7749 11.6184C79.9748 11.3984 80.2185 11.2226 80.4904 11.1023C80.7622 10.9821 81.0562 10.9199 81.3535 10.9199C81.6508 10.9199 81.9447 10.9821 82.2166 11.1023C82.4884 11.2226 82.7322 11.3984 82.9321 11.6184C83.132 11.8383 83.2838 12.0977 83.3776 12.3797C83.4715 12.6618 83.5053 12.9604 83.477 13.2563C83.5059 13.5525 83.4724 13.8515 83.3788 14.134C83.2852 14.4166 83.1336 14.6764 82.9336 14.8968C82.7336 15.1172 82.4897 15.2933 82.2176 15.4139C81.9454 15.5344 81.6511 15.5967 81.3535 15.5967C81.0559 15.5967 80.7615 15.5344 80.4894 15.4139C80.2173 15.2933 79.9734 15.1172 79.7734 14.8968C79.5734 14.6764 79.4217 14.4166 79.3281 14.134C79.2346 13.8515 79.2011 13.5525 79.23 13.2563ZM82.563 13.2563C82.563 12.2802 82.1245 11.7094 81.355 11.7094C80.5825 11.7094 80.148 12.2802 80.148 13.2563C80.148 14.2402 80.5825 14.8066 81.355 14.8066C82.1245 14.8066 82.563 14.2363 82.563 13.2563Z" fill="white"/>
  <path d="M84.6694 11.0064H85.5249V11.7217H85.5913C85.704 11.4648 85.894 11.2494 86.1348 11.1056C86.3757 10.9618 86.6555 10.8967 86.9351 10.9195C87.1542 10.903 87.3742 10.936 87.5788 11.0161C87.7834 11.0962 87.9673 11.2213 88.117 11.3822C88.2667 11.543 88.3783 11.7355 88.4435 11.9453C88.5087 12.1551 88.5258 12.3769 88.4937 12.5943V15.5093H87.605V12.8174C87.605 12.0938 87.2905 11.7339 86.6333 11.7339C86.4846 11.727 86.336 11.7523 86.198 11.8082C86.0599 11.864 85.9356 11.949 85.8335 12.0574C85.7313 12.1658 85.6539 12.295 85.6063 12.4361C85.5588 12.5772 85.5423 12.727 85.5581 12.875V15.5093H84.6694V11.0064Z" fill="white"/>
  <path d="M93.5151 9.88574V11.0273H94.4907V11.7759H93.5151V14.0913C93.5151 14.563 93.7095 14.7695 94.1519 14.7695C94.2651 14.7692 94.3783 14.7623 94.4907 14.749V15.4893C94.3311 15.5178 94.1694 15.533 94.0073 15.5347C93.019 15.5347 92.6255 15.187 92.6255 14.3188V11.7758H91.9106V11.0273H92.6255V9.88574H93.5151Z" fill="white"/>
  <path d="M95.7046 9.24902H96.5854V11.7305H96.6558C96.7739 11.4712 96.9691 11.2546 97.2148 11.1102C97.4605 10.9659 97.7447 10.9008 98.0288 10.9238C98.2467 10.912 98.4646 10.9484 98.6669 11.0304C98.8692 11.1124 99.0508 11.2381 99.199 11.3985C99.3471 11.5588 99.458 11.7498 99.5238 11.958C99.5896 12.1661 99.6086 12.3862 99.5795 12.6025V15.5098H98.69V12.8218C98.69 12.1025 98.355 11.7383 97.7271 11.7383C97.5743 11.7257 97.4207 11.7467 97.2769 11.7998C97.1332 11.8529 97.0027 11.9367 96.8947 12.0454C96.7867 12.1542 96.7038 12.2852 96.6517 12.4293C96.5997 12.5735 96.5797 12.7272 96.5933 12.8799V15.5098H95.7046L95.7046 9.24902Z" fill="white"/>
  <path d="M104.761 14.294C104.64 14.7056 104.379 15.0615 104.022 15.2997C103.665 15.5378 103.236 15.643 102.81 15.5967C102.513 15.6046 102.219 15.5478 101.946 15.4302C101.674 15.3127 101.43 15.1373 101.232 14.9161C101.034 14.695 100.887 14.4334 100.8 14.1496C100.713 13.8658 100.689 13.5665 100.73 13.2725C100.69 12.9777 100.715 12.6777 100.801 12.393C100.888 12.1084 101.034 11.8456 101.231 11.6225C101.428 11.3995 101.671 11.2213 101.942 11.1001C102.214 10.9789 102.509 10.9175 102.806 10.92C104.059 10.92 104.815 11.776 104.815 13.19V13.5001H101.635V13.5499C101.621 13.7151 101.642 13.8815 101.696 14.0382C101.75 14.195 101.837 14.3387 101.95 14.4601C102.062 14.5816 102.199 14.6781 102.352 14.7435C102.504 14.8089 102.669 14.8417 102.834 14.8399C103.047 14.8654 103.262 14.8271 103.453 14.7299C103.644 14.6327 103.801 14.481 103.906 14.294L104.761 14.294ZM101.635 12.8428H103.91C103.921 12.6917 103.9 12.5399 103.849 12.3972C103.798 12.2545 103.718 12.124 103.614 12.0141C103.509 11.9043 103.383 11.8175 103.243 11.7593C103.103 11.7011 102.953 11.6729 102.801 11.6763C102.648 11.6744 102.495 11.7033 102.353 11.7612C102.21 11.8192 102.081 11.905 101.972 12.0137C101.864 12.1224 101.778 12.2518 101.72 12.3942C101.662 12.5366 101.633 12.6891 101.635 12.8428H101.635Z" fill="white"/>
  </g>
  <defs>
  <clipPath id="clip0_3205_13859">
  <rect width="119.664" height="40" fill="white" transform="translate(0 0.8125)"/>
  </clipPath>
  </defs>
</svg>
