<svg width="16" height="16" viewBox="0 0 16 16" fill="none" xmlns="http://www.w3.org/2000/svg">
<path d="M15.4188 0.769072L12.1688 0.0190875C11.8157 -0.0621608 11.4532 0.12221 11.3095 0.453454L9.8095 3.95338C9.67825 4.25963 9.76575 4.61899 10.0251 4.82836L11.9188 6.37833C10.7939 8.77516 8.82827 10.7689 6.38145 11.9157L4.83148 10.022C4.61898 9.76264 4.26274 9.67514 3.95649 9.80639L0.456566 11.3064C0.122198 11.4532 -0.0621732 11.8157 0.0190751 12.1688L0.76906 15.4188C0.847183 15.7563 1.14718 16 1.50029 16C9.50326 16 16 9.51577 16 1.50031C16 1.15031 15.7594 0.847196 15.4188 0.769072Z" fill="#1B78D0"/>
</svg>
