<svg fill="none" height="16" viewBox="0 0 16 16" width="16" xmlns="http://www.w3.org/2000/svg"><path d="m15.4188.769072-3.25-.7499845c-.3531-.0812483-.7156.1031225-.8593.4343665l-1.5 3.499926c-.13125.30625-.04375.66561.2156.87498l1.8937 1.54997c-1.1249 2.39683-3.09053 4.39057-5.53735 5.53737l-1.54997-1.8937c-.2125-.25936-.56874-.34686-.87499-.21561l-3.499924 1.50001c-.334368.1468-.5187392.5093-.4374909.8624l.7499849 3.25c.078123.3375.37812.5812.73123.5812 8.00297 0 14.49971-6.48423 14.49971-14.49969 0-.35-.2406-.653114-.5812-.731238z" fill="#1b78d0"/></svg>