<svg width="16" height="16" viewBox="0 0 16 16" fill="none" xmlns="http://www.w3.org/2000/svg">
<path d="M15.244 0.754294L12.094 0.0261778C11.6347 -0.0800708 11.1628 0.157426 10.9753 0.591796L9.5222 3.98238C9.35033 4.37925 9.46595 4.84799 9.80032 5.12299L11.4847 6.5011C10.4222 8.66357 8.66284 10.426 6.49724 11.4885L5.11913 9.80418C4.84413 9.46981 4.37539 9.35418 3.97852 9.52606L0.591063 10.9792C0.156694 11.1667 -0.0808032 11.6354 0.0254454 12.0948L0.750436 15.2416C0.85356 15.6885 1.2473 16.001 1.70355 16.001C9.5847 16.001 16.0002 9.61981 16.0002 1.70428C16.0002 1.24804 15.6877 0.854292 15.244 0.754294ZM1.7223 15.001L1.00356 11.8885L4.35977 10.451L6.21912 12.726C9.45658 11.2073 11.2097 9.44793 12.7222 6.22297L10.4472 4.36362L11.8847 1.00742L14.9971 1.72616C14.9909 9.05419 9.05033 14.9916 1.7223 15.001Z" fill="#1B78D0"/>
</svg>
