<svg width="24" height="24" viewBox="0 0 24 24" fill="none" xmlns="http://www.w3.org/2000/svg">
<path d="M11.6457 0.189119L11.2653 0.569483C11.0132 0.821588 11.0132 1.23036 11.2653 1.48252L20.8682 11.0854H0.645595C0.289065 11.0854 0 11.3745 0 11.731V12.269C0 12.6255 0.289065 12.9146 0.645595 12.9146H20.8682L11.2653 22.5175C11.0132 22.7696 11.0132 23.1784 11.2653 23.4306L11.6457 23.8109C11.8978 24.063 12.3066 24.063 12.5587 23.8109L23.9131 12.4565C24.1652 12.2044 24.1652 11.7956 23.9131 11.5435L12.5587 0.189119C12.3066 -0.0630397 11.8978 -0.0630397 11.6457 0.189119Z" fill="#1B78D0"/>
</svg>
