<svg width="24" height="24" viewBox="0 0 24 24" fill="none" xmlns="http://www.w3.org/2000/svg">
<path d="M12.457 23.8128L12.8374 23.4325C13.0895 23.1804 13.0895 22.7716 12.8374 22.5194L3.23452 12.9165H23.4571C23.8136 12.9165 24.1027 12.6275 24.1027 12.2709V11.7329C24.1027 11.3764 23.8136 11.0873 23.4571 11.0873H3.23452L12.8374 1.48443C13.0895 1.23232 13.0895 0.823554 12.8374 0.571395L12.457 0.191032C12.2049 -0.0610731 11.7961 -0.0610731 11.544 0.191032L0.189567 11.5454C-0.062538 11.7975 -0.062538 12.2063 0.189567 12.4585L11.544 23.8129C11.7961 24.065 12.2049 24.065 12.457 23.8128V23.8128Z" fill="#1B78D0"/>
</svg>
